<?xml version="1.0" encoding="UTF-8"?>
<svg version="1.1" xmlns="http://www.w3.org/2000/svg" width="1000" height="1176">
<path d="M0 0 C1.98214125 -0.26173851 3.97625545 -0.42716962 5.96899414 -0.58959961 C7.27094727 -0.73139648 8.57290039 -0.87319336 9.91430664 -1.01928711 C13.06493208 -0.58960286 13.81862625 0.25389038 15.85058594 2.77783203 C17.62559288 5.63312822 19.28104217 8.50109261 20.86462402 11.46411133 C22.37391812 14.27087538 23.99446404 17.01208677 25.59790039 19.76586914 C26.8694526 22.00039741 28.13891797 24.23611425 29.40649414 26.47290039 C30.81164891 28.94357636 32.21850687 31.41328145 33.62524414 33.88305664 C33.97817032 34.50315613 34.3310965 35.12325562 34.69471741 35.762146 C38.2418347 41.99178124 41.82079078 48.2029026 45.40649414 54.41040039 C46.02081299 55.47411865 46.63513184 56.53783691 47.26806641 57.63378906 C48.50691637 59.77849626 49.74592955 61.92310919 50.98510742 64.06762695 C54.10724019 69.47210684 57.22540618 74.87887451 60.34399414 80.28540039 C61.59397536 82.45207789 62.84397535 84.61874456 64.09399414 86.78540039 C131.59399414 203.78540039 131.59399414 203.78540039 133.46923828 207.03588867 C134.71834932 209.2009711 135.96753543 211.36601021 137.21679688 213.53100586 C140.35601723 218.97155745 143.49389977 224.41287255 146.62915039 229.85571289 C152.65146743 240.30746239 158.69068751 250.74839587 164.78149414 261.16040039 C170.20358113 270.4310397 175.54723426 279.74476738 180.86422729 289.0758667 C185.47883443 297.17247882 190.134843 305.2432884 194.84399414 313.28540039 C199.90030337 321.92037596 204.89006536 330.59146358 209.84399414 339.28540039 C215.38385347 349.00664545 220.97774346 358.69434908 226.62744141 368.35229492 C232.12694231 377.7566517 237.57239701 387.19168809 243.00805664 396.63305664 C245.32874072 400.66273907 247.65655922 404.68810144 249.99443054 408.70782471 C251.38279391 411.09529592 252.76874484 413.48416359 254.15457153 415.87310791 C255.13328519 417.55794659 256.11542979 419.24079077 257.09765625 420.92358398 C257.69070557 421.94661621 258.28375488 422.96964844 258.89477539 424.02368164 C259.41724854 424.92127197 259.93972168 425.8188623 260.47802734 426.74365234 C261.84399414 429.28540039 261.84399414 429.28540039 263.84399414 434.28540039 C309.05399414 434.28540039 354.26399414 434.28540039 400.84399414 434.28540039 C396.52626569 442.9208573 392.25585269 451.27405782 387.34399414 459.53540039 C386.11290427 461.62618062 384.88245781 463.71733981 383.65258789 465.80883789 C382.71068604 467.40743652 382.71068604 467.40743652 381.74975586 469.03833008 C378.6056836 474.39525565 375.50601798 479.77761475 372.40649414 485.16040039 C371.78452148 486.23966797 371.16254883 487.31893555 370.52172852 488.4309082 C369.25932474 490.62155005 367.99711791 492.8123054 366.73510742 495.00317383 C363.60719266 500.43199981 360.47540966 505.8585932 357.34399414 511.28540039 C356.09397535 513.45205622 354.84397536 515.61872289 353.59399414 517.78540039 C351.09399414 522.11873372 348.59399414 526.45206706 346.09399414 530.78540039 C345.47516357 531.85806152 344.85633301 532.93072266 344.21875 534.03588867 C342.96963896 536.2009711 341.72045285 538.36601021 340.47119141 540.53100586 C337.33197105 545.97155745 334.19408851 551.41287255 331.05883789 556.85571289 C325.03652085 567.30746239 318.99730077 577.74839587 312.90649414 588.16040039 C307.22044252 597.88236424 301.61431239 607.64844906 296.05126953 617.44116211 C294.81447098 619.6141702 293.54500396 621.76886177 292.24598694 623.90525818 C290.31395671 627.22868114 288.89257542 630.60698684 287.48446655 634.18156433 C280.59242392 650.2073568 280.59242392 650.2073568 272.67700958 653.67136002 C263.9032001 655.70955855 254.96219826 655.43259736 246.01400042 655.14696527 C242.09687536 655.04426833 238.18023167 655.06937418 234.26205444 655.07670593 C227.69123771 655.07007151 221.12711571 654.97047614 214.55834961 654.81005859 C206.97979235 654.62574327 199.40910521 654.57175296 191.82850897 654.59080249 C184.50715398 654.60771916 177.1884015 654.55035784 169.86771774 654.45332909 C166.76478061 654.41243278 163.66293933 654.39402442 160.55974197 654.39345741 C156.90408265 654.38815561 153.25533052 654.31656057 149.60175323 654.19484138 C147.63359179 654.14386171 145.66411534 654.15553752 143.69534302 654.16946411 C139.98946882 654.00518916 137.26696823 653.72790533 133.84399414 652.28540039 C130.28534975 648.29519937 128.1429342 644.12008072 125.84399414 639.28540039 C124.73988499 637.31317782 123.62482612 635.34698816 122.49243164 633.39086914 C121.39907964 631.41943481 120.30799375 629.44674227 119.21899414 627.47290039 C114.54497271 619.05953552 109.78604456 610.70618856 104.90649414 602.41040039 C99.26473166 592.80990893 93.8318635 583.10586971 88.4519043 573.35668945 C83.77155827 564.89788227 78.9421308 556.53703399 74.04321289 548.20336914 C69.88499146 541.11378891 65.84033284 533.96733944 61.84399414 526.78540039 C57.26832772 518.56337014 52.60811549 510.39968909 47.84399414 502.28540039 C42.52560139 493.2235578 37.34528305 484.0934734 32.23022461 474.91552734 C27.85647814 467.07443182 23.42912247 459.26509117 18.96899414 451.47290039 C18.63563049 450.89044556 18.30226685 450.30799072 17.95880127 449.70788574 C16.265257 446.74946507 14.57091588 443.79150173 12.8762207 440.83374023 C9.86031125 435.56918982 6.85139203 430.30064539 3.84197998 425.03237915 C2.17627443 422.116554 0.510111 419.20099052 -1.15600586 416.28540039 C-1.82267472 415.11873498 -2.48934138 413.95206831 -3.15600586 412.78540039 C-3.48600586 412.20790039 -3.81600586 411.63040039 -4.15600586 411.03540039 C-7.15600586 405.7854004 -7.15600586 405.7854004 -8.15597534 404.03544617 C-8.82273497 402.8686219 -9.48950336 401.70180265 -10.15628052 400.5349884 C-11.82159674 397.62077393 -13.48676123 394.70647297 -15.15161133 391.79199219 C-18.16755191 386.51264375 -21.18462927 381.23396095 -24.20730591 375.95846558 C-25.89928426 373.00537023 -27.5903805 370.0517705 -29.28100586 367.09790039 C-29.61356384 366.51689575 -29.94612183 365.93589111 -30.28875732 365.33728027 C-35.00270484 357.09754888 -39.65968581 348.82743197 -44.28100586 340.53540039 C-49.37815184 331.39094469 -54.60599332 322.33180947 -59.90649414 313.30395508 C-64.68606178 305.14280665 -69.30967188 296.90063178 -73.90820312 288.63647461 C-77.88416221 281.50911772 -81.95764583 274.44600947 -86.09350586 267.41040039 C-91.73499749 257.80974535 -97.168132 248.10587787 -102.5480957 238.35668945 C-107.22844173 229.89788227 -112.0578692 221.53703399 -116.95678711 213.20336914 C-121.11500854 206.11378891 -125.15966716 198.96733944 -129.15600586 191.78540039 C-133.73167038 183.56337355 -138.39174475 175.39960532 -143.15600586 167.28540039 C-148.58713772 158.03475527 -153.88582782 148.71808853 -159.08178711 139.33325195 C-161.82462482 134.39082121 -164.60852971 129.49131791 -167.55053711 124.66430664 C-168.07558838 123.79459229 -168.60063965 122.92487793 -169.14160156 122.02880859 C-170.12336306 120.41237619 -171.11979475 118.80472786 -172.13330078 117.20800781 C-175.26677792 112.02465815 -175.26677792 112.02465815 -174.78491211 108.80883789 C-174.24737305 107.97610352 -173.70983398 107.14336914 -173.15600586 106.28540039 C-172.77234863 105.66149414 -172.38869141 105.03758789 -171.9934082 104.39477539 C-170.57161654 102.11742435 -169.09259922 99.88758506 -167.59350586 97.66040039 C-167.05411377 96.85715332 -166.51472168 96.05390625 -165.95898438 95.22631836 C-158.62046063 84.41817976 -150.10976867 74.77485841 -141.15600586 65.28540039 C-140.35420898 64.42946289 -139.55241211 63.57352539 -138.72631836 62.69165039 C-132.08353167 55.80928778 -124.77320517 50.0295179 -117.15600586 44.28540039 C-115.76381836 43.21805664 -115.76381836 43.21805664 -114.34350586 42.12915039 C-82.80849742 18.47789406 -43.69664113 4.03885288 -4.52880859 0.51025391 C-3.01642976 0.3669366 -1.50601655 0.19935832 0 0 Z " fill="#274773" transform="translate(312.156005859375,77.714599609375)"/>
<path d="M0 0 C15.18 0 30.36 0 46 0 C48.52656842 6.05906119 51.05293495 12.1182056 53.57867432 18.1776123 C54.48287215 20.34682608 55.38712812 22.51601563 56.29144287 24.68518066 C61.22089541 36.51030946 66.14471366 48.33769059 71.04296875 60.17578125 C71.43465744 61.12210922 71.82634613 62.06843719 72.22990417 63.04344177 C74.08614271 67.52872229 75.94069298 72.01468977 77.79272461 76.50170898 C78.45811964 78.11053539 79.12356279 79.71934189 79.7890625 81.328125 C80.08713303 82.05199905 80.38520355 82.77587311 80.69230652 83.52168274 C82.02605548 86.74229098 83.41901829 89.89414158 85 93 C88.23732261 85.41170239 91.47308724 77.8227413 94.70787811 70.23336411 C95.49618767 68.38394394 96.28461899 66.53457571 97.07305908 64.68521118 C102.42520007 52.13006317 107.77215328 39.57292521 113.0546875 26.98828125 C113.43042908 26.09338989 113.80617065 25.19849854 114.19329834 24.27648926 C115.92904401 20.14023193 117.66113064 16.00248339 119.38867188 11.86279297 C119.99605431 10.41241838 120.60347371 8.96205927 121.2109375 7.51171875 C121.48275848 6.85706131 121.75457947 6.20240387 122.03463745 5.52790833 C123.88686988 1.11313012 123.88686988 1.11313012 125 0 C128.10251201 -0.08874135 131.1826812 -0.11518455 134.28515625 -0.09765625 C135.21597519 -0.0962413 136.14679413 -0.09482635 137.1058197 -0.09336853 C140.09141191 -0.08775172 143.07693029 -0.0751964 146.0625 -0.0625 C148.08137913 -0.05748716 150.10025943 -0.05292388 152.11914062 -0.04882812 C157.07945572 -0.03777683 162.03971532 -0.02050095 167 0 C166.39511603 3.50912577 165.47424686 6.55322951 164.06420898 9.81958008 C163.4584201 11.23278786 163.4584201 11.23278786 162.84039307 12.67454529 C162.39677429 13.69589066 161.95315552 14.71723602 161.49609375 15.76953125 C160.79670685 17.39575157 160.79670685 17.39575157 160.08319092 19.05482483 C158.80583729 22.02273571 157.52427015 24.98878437 156.24096298 27.95412445 C154.88979273 31.07932352 153.54431484 34.20697043 152.19848633 37.33447266 C150.23039609 41.9068504 148.26076788 46.47855935 146.28911114 51.04940033 C141.07727976 63.13233173 135.89221785 75.22670555 130.70999146 87.32235718 C129.23594485 90.76195685 127.76059227 94.20099348 126.28491211 97.63989258 C119.8082 112.73959635 113.38791692 127.86253075 107 143 C107.74348694 142.94318054 108.48697388 142.88636108 109.25299072 142.82781982 C133.81016321 140.95885115 158.39330278 139.96949171 183 139 C182.39236816 138.53601807 181.78473633 138.07203613 181.15869141 137.59399414 C180.35608887 136.97645264 179.55348633 136.35891113 178.7265625 135.72265625 C177.93330566 135.11429932 177.14004883 134.50594238 176.32275391 133.87915039 C167.02289762 126.35539657 159.51925321 114.02380401 158 102 C157.86851562 100.97648438 157.73703125 99.95296875 157.6015625 98.8984375 C155.89929465 81.8379308 159.28390068 66.10856062 169.90234375 52.43359375 C180.99424521 39.56533563 196.2306684 32.64644347 213 31 C232.7667995 29.76592818 249.95021736 34.07405178 265.16015625 46.80859375 C275.5653404 56.45193397 281.21294045 69.50189536 282.17480469 83.55371094 C282.37872151 89.04735127 282.35413076 94.51387592 282 100 C280.25707823 101.74292177 277.99376505 101.11980303 275.67175293 101.12442017 C274.90858765 101.12082489 274.14542236 101.11722961 273.35913086 101.11352539 C272.15922264 101.11374443 272.15922264 101.11374443 270.93507385 101.1139679 C268.27830335 101.11326855 265.62160207 101.10547518 262.96484375 101.09765625 C261.12781309 101.09579215 259.29078194 101.09436821 257.45375061 101.09336853 C252.60890338 101.08954275 247.76408592 101.07971196 242.91925049 101.06866455 C237.97937422 101.05845172 233.03949315 101.05387119 228.09960938 101.04882812 C218.39972647 101.03808974 208.69986571 101.0210126 199 101 C199.76986364 102.27769026 200.545797 103.55172435 201.32421875 104.82421875 C201.75565186 105.53408936 202.18708496 106.24395996 202.6315918 106.9753418 C205.72515661 111.55249308 210.10390548 114.73678623 215.33984375 116.4921875 C226.21275476 118.56777991 237.40827996 118.044607 246.79296875 111.80859375 C247.31503906 111.43863281 247.83710938 111.06867188 248.375 110.6875 C251 109 251 109 252.95922852 109.19433594 C255.3923902 110.1549094 256.52893628 111.26602148 258.27734375 113.203125 C258.87353516 113.85410156 259.46972656 114.50507812 260.08398438 115.17578125 C260.69564453 115.86027344 261.30730469 116.54476562 261.9375 117.25 C263.1541743 118.58924489 264.37160828 119.92780007 265.58984375 121.265625 C266.45585205 122.22178711 266.45585205 122.22178711 267.33935547 123.19726562 C269.49412104 125.53639955 271.72780819 127.77523535 274 130 C272.84826645 132.46800047 271.95216435 134.04783565 270 136 C279.57 136 289.14 136 299 136 C299 102.01 299 68.02 299 33 C311.87 33 324.74 33 338 33 C338.33 36.63 338.66 40.26 339 44 C339.928125 43.113125 340.85625 42.22625 341.8125 41.3125 C352.47639914 32.23638464 366.37942049 29.9432309 380 31 C393.13567725 32.75240537 404.71113718 37.27537486 413 48 C424.18187303 65.02694302 422.38289405 85.534329 422.1875 105 C422.17242315 107.62499231 422.15874007 110.24999301 422.14648438 112.875 C422.11372352 119.2501858 422.06376297 125.62505278 422 132 C422.65471283 131.93148331 423.30942566 131.86296661 423.98397827 131.79237366 C428.58486554 131.31984281 433.16646442 130.87852258 437.7890625 130.68359375 C439.22958984 130.62075195 439.22958984 130.62075195 440.69921875 130.55664062 C441.66472656 130.51732422 442.63023437 130.47800781 443.625 130.4375 C444.62917969 130.39431641 445.63335938 130.35113281 446.66796875 130.30664062 C449.11188383 130.20190141 451.55587617 130.09972744 454 130 C453.79503906 129.28714844 453.59007812 128.57429687 453.37890625 127.83984375 C453.10949219 126.88207031 452.84007812 125.92429687 452.5625 124.9375 C452.16224609 123.52791016 452.16224609 123.52791016 451.75390625 122.08984375 C450.01139911 114.94827302 449.86507394 108.13717801 449.90234375 100.81640625 C449.90446617 99.23314796 449.90446617 99.23314796 449.90663147 97.61790466 C449.91220278 94.26607357 449.92474998 90.91431071 449.9375 87.5625 C449.94251871 85.28190201 449.94708097 83.00130297 449.95117188 80.72070312 C449.96216281 75.14710936 449.97940762 69.57356623 450 64 C444.72 64 439.44 64 434 64 C434 53.77 434 43.54 434 33 C439.28 33 444.56 33 450 33 C450 24.75 450 16.5 450 8 C463.53 8 477.06 8 491 8 C491 16.25 491 24.5 491 33 C499.58 33 508.16 33 517 33 C517 43.23 517 53.46 517 64 C508.42 64 499.84 64 491 64 C491.09700429 70.17508911 491.19977958 76.34951799 491.31738281 82.52416992 C491.35563014 84.62404537 491.3904904 86.72398538 491.421875 88.82397461 C491.4676175 91.84512381 491.52559723 94.86583016 491.5859375 97.88671875 C491.59748871 98.82335861 491.60903992 99.75999847 491.62094116 100.72502136 C491.74134417 106.06074208 491.91476893 110.46145782 495.4375 114.75 C498.96105805 117.56884644 502.69405133 117.28235729 507 117 C509.76952321 116.16720631 512.32723624 115.12537421 515 114 C515.83764268 115.95649397 516.66999059 117.91525556 517.5 119.875 C517.9640625 120.96554687 518.428125 122.05609375 518.90625 123.1796875 C520 126 520 126 520 128 C522.87526069 127.8583467 525.75013536 127.71181468 528.625 127.5625 C529.43324219 127.52318359 530.24148438 127.48386719 531.07421875 127.44335938 C535.45150865 127.21203918 539.68547281 126.83079083 544 126 C543.72285156 125.14277344 543.44570313 124.28554688 543.16015625 123.40234375 C542.79792969 122.25894531 542.43570313 121.11554688 542.0625 119.9375 C541.70285156 118.81214844 541.34320312 117.68679688 540.97265625 116.52734375 C539.31330173 110.50968459 538.87568451 104.73003877 538.88647461 98.50415039 C538.88632858 97.79111755 538.88618256 97.07808472 538.8860321 96.34344482 C538.88672287 94.0114832 538.8944757 91.67960374 538.90234375 89.34765625 C538.9042109 87.72098331 538.9056334 86.09430981 538.90663147 84.46763611 C538.91043323 80.20484846 538.92024332 75.94209537 538.93133545 71.67932129 C538.94340767 66.55472274 538.94796296 61.43011257 538.95378876 56.30550385 C538.96345649 48.5369786 538.98262938 40.76852904 539 33 C552.53 33 566.06 33 580 33 C580.02578125 37.56457031 580.0515625 42.12914062 580.078125 46.83203125 C580.10332664 49.74419477 580.12968474 52.65625782 580.16015625 55.56835938 C580.20828852 60.17863181 580.25240835 64.78867132 580.27099609 69.39916992 C580.2862722 73.12124985 580.32090732 76.84271545 580.36830902 80.56451988 C580.3830111 81.97603669 580.39103451 83.38764127 580.39188385 84.79923439 C580.40224573 93.39480368 580.84270973 101.29507053 585 109 C589.31767034 112.77796155 592.68908897 113.82223761 598.25 114.25 C604.29418414 113.84705439 608.39494375 112.53372042 612.8125 108.3125 C618.40922378 99.83746114 618.4673254 92.12649593 618.51171875 82.21875 C618.52858938 80.79527257 618.54674279 79.37180982 618.56611633 77.94836426 C618.61336435 74.22652781 618.64333569 70.5047509 618.66955566 66.78271484 C618.70476491 62.30371549 618.76170498 57.82494467 618.81494904 53.34613037 C618.89316719 46.56411706 618.94399502 39.7823968 619 33 C632.53 33 646.06 33 660 33 C660 64.02 660 95.04 660 127 C666.93 127 673.86 127 681 127 C681.33 125.35 681.66 123.7 682 122 C682.96494952 119.86962668 683.98928035 117.76543591 685.0625 115.6875 C685.88427734 114.08455078 685.88427734 114.08455078 686.72265625 112.44921875 C687.35494141 111.23685547 687.35494141 111.23685547 688 110 C691.58774118 111.15983012 695.04845658 112.42441142 698.5 113.9375 C708.3859578 117.85374738 717.94391203 119.27103707 728.5 119.375 C729.34868652 119.38885742 730.19737305 119.40271484 731.07177734 119.41699219 C736.1384551 119.37876829 739.56813976 118.7195506 744 116 C744.41780879 113.62694422 744.41780879 113.62694422 744 111 C740.29944467 108.20786412 736.94194962 107.41891723 732.40625 106.75390625 C731.1275 106.55603516 729.84875 106.35816406 728.53125 106.15429688 C727.18767271 105.95585834 725.84392107 105.7585968 724.5 105.5625 C692.33762772 100.82429337 692.33762772 100.82429337 682.21875 88.03515625 C677.49686745 80.15021776 676.55448368 69.96990075 678.69140625 61.14453125 C682.21647576 50.45132875 688.1475404 43.45879518 698 38 C721.61109556 27.32416971 750.36481678 28.82143024 774.34765625 37.71875 C777 39 777 39 780 42 C776.04 50.91 772.08 59.82 768 69 C764.9859293 67.99530977 761.9718759 66.99040813 758.96484375 65.96484375 C757.46630859 65.45630859 757.46630859 65.45630859 755.9375 64.9375 C754.93589844 64.59589844 753.93429687 64.25429688 752.90234375 63.90234375 C746.89484464 62.03460176 741.37846989 61.81707794 735.125 61.8125 C734.25230469 61.80025391 733.37960937 61.78800781 732.48046875 61.77539062 C727.25253908 61.7635983 722.94762362 62.2946202 718 64 C718 66.31 718 68.62 718 71 C725.41125846 74.87406692 733.56213867 75.53668726 741.73730469 76.72680664 C756.00883405 78.82940331 769.99052199 82.00429346 779.51953125 93.6484375 C784.68632696 101.85532673 784.79354316 111.72549395 783 121 C781.91494792 124.15890162 780.62124015 127.08176772 779 130 C780.57018402 131.57018402 782.24607426 131.30034214 784.42797852 131.48071289 C785.36887833 131.56072037 786.30977814 131.64072784 787.27919006 131.72315979 C788.30209641 131.80549362 789.32500275 131.88782745 790.37890625 131.97265625 C791.42070541 132.06002548 792.46250458 132.14739471 793.53587341 132.2374115 C796.87774475 132.51668702 800.22009803 132.78965575 803.5625 133.0625 C805.82230004 133.25023723 808.0820662 133.43838283 810.34179688 133.62695312 C815.89414609 134.08938235 821.44690424 134.54662866 827 135 C826.47106593 140.59166725 825.67460743 145.9666488 824.37109375 151.44140625 C824.21713638 152.09455307 824.06317902 152.74769989 823.90455627 153.42063904 C823.42050473 155.46914274 822.92916009 157.5158107 822.4375 159.5625 C822.10432922 160.96668106 821.77164306 162.3709772 821.43945312 163.77539062 C820.6318834 167.18493825 819.81777179 170.59288303 819 174 C815.84334132 174.98111407 813.45152361 174.98481634 810.1862793 174.55029297 C809.22067078 174.42602432 808.25506226 174.30175568 807.26019287 174.17372131 C805.68313568 173.96011208 805.68313568 173.96011208 804.07421875 173.7421875 C801.77665814 173.44535683 799.47904838 173.14890643 797.18139648 172.8527832 C795.96298065 172.69331207 794.74456482 172.53384094 793.48922729 172.36953735 C733.80744707 164.60599532 673.80311922 160.37374774 613.6875 157.8125 C612.82125 157.77557037 611.955 157.73864075 611.0625 157.70059204 C582.81378493 156.52185937 554.5469545 155.87594775 526.27734375 155.49731445 C523.35314884 155.45811461 520.42900723 155.41645958 517.50488281 155.37231445 C474.89794068 154.72939295 432.29619842 155.02638883 389.6875 155.375 C388.39490013 155.38545979 387.10230026 155.39591957 385.7705307 155.40669632 C308.40497349 156.03549802 231.04159001 157.13492875 53.00218582 161.40474319 C50.1359896 161.49761866 47.26976337 161.58952233 44.40353394 161.68136597 C23.91435207 162.34197534 3.44467282 163.14667861 -17.01976013 164.3651123 C-24.68821354 164.81554234 -32.31680367 165.13419644 -40 165 C-38.33333333 163.33333333 -36.66666667 161.66666667 -35 160 C-34.14438477 158.96540649 -34.14438477 158.96540649 -33.27148438 157.90991211 C-30.20202466 155.32904545 -27.87285482 155.17626336 -23.90625 154.69140625 C-22.82688927 154.55359238 -22.82688927 154.55359238 -21.72572327 154.41299438 C-19.31897004 154.11159566 -16.91000989 153.83654627 -14.5 153.5625 C-12.8032123 153.35728379 -11.10651823 153.15129208 -9.40991211 152.94458008 C13.67662111 150.1851434 36.84707832 148.11246649 60 146 C57.87866363 139.22316181 55.29034824 132.7266182 52.484375 126.20703125 C52.0404541 125.16755844 51.5965332 124.12808563 51.13916016 123.05711365 C49.67935885 119.64084137 48.21464989 116.22669601 46.75 112.8125 C45.72390612 110.41324745 44.69819622 108.01383065 43.67285156 105.61425781 C41.80500258 101.24348428 39.93602987 96.8731948 38.06557846 92.50353432 C33.09859261 80.89944646 28.15238009 69.2865271 23.2076416 57.67294312 C21.34863999 53.30749637 19.48815594 48.94268203 17.62774658 44.57783508 C16.31457104 41.49467296 15.00384195 38.41047943 13.69335938 35.32617188 C12.0292804 31.41118273 10.35688296 27.49992414 8.67574692 23.59222794 C7.38944536 20.59955494 6.10958835 17.60412225 4.828125 14.609375 C4.34494812 13.49185852 3.86177124 12.37434204 3.36395264 11.22296143 C2.92319397 10.18999939 2.4824353 9.15703735 2.02832031 8.09277344 C1.63590149 7.17993591 1.24348267 6.26709839 0.83917236 5.32659912 C0 3 0 3 0 0 Z M203.1875 67.75 C200.4341324 71.56997162 200.4341324 71.56997162 198 79 C212.85 79 227.7 79 243 79 C241.85790273 72.1474164 240.48712416 68.58449798 234.90234375 64.4453125 C224.148365 58.25521741 212.05136726 59.08310757 203.1875 67.75 Z M345.625 73 C337.52910483 84.152632 339.65433074 99.74629847 339.8125 112.75 C339.82757309 114.91144902 339.84125685 117.07290819 339.85351562 119.234375 C339.88631513 124.48980774 339.93630624 129.74485559 340 135 C353.70903428 135.11916117 367.32159605 134.95629291 381 134 C381.07649331 127.06240965 381.12878497 120.12492935 381.16479492 113.18701172 C381.17981778 110.83019954 381.20024196 108.47341502 381.22631836 106.11669922 C381.26298821 102.71575058 381.27979196 99.31517379 381.29296875 95.9140625 C381.30845261 94.87198639 381.32393646 93.82991028 381.33988953 92.7562561 C381.34166199 84.93179327 380.30349077 77.86657378 376.25 71.0625 C371.58416159 66.78548145 366.52586048 65.40300996 360.33203125 65.65625 C354.58494415 66.50339182 349.71923131 68.86533183 345.625 73 Z " fill="#112147" transform="translate(106,828)"/>
<path d="M0 0 C26.73 0 53.46 0 81 0 C85.29 7.92 89.58 15.84 94 24 C98.44264865 31.80984442 98.44264865 31.80984442 102.91015625 39.60546875 C108.09335083 48.62819006 113.14355219 57.7262775 118.21777344 66.81054688 C121.14133437 72.04251949 124.0708977 77.27112834 127 82.5 C130.51328342 88.77256331 134.02581751 95.04554122 137.53515625 101.3203125 C143.69978911 112.34027567 149.88509711 123.34796384 156.10571289 134.33642578 C160.68563509 142.43152664 165.22967662 150.54644164 169.76953125 158.6640625 C173.66158055 165.61969829 177.57339742 172.56381803 181.5 179.5 C188.96932638 192.69637709 196.36936445 205.931318 203.77050781 219.16601562 C211.23679373 232.51545451 218.72535172 245.85183308 226.2578125 259.1640625 C226.72606445 259.99325195 227.19431641 260.82244141 227.67675781 261.67675781 C228.52520032 263.16638492 229.38312015 264.65067717 230.25292969 266.12792969 C233 270.8010791 233 270.8010791 233 273 C277.88 273 322.76 273 369 273 C367.44615425 276.88461437 365.86235312 280.17185557 363.796875 283.76953125 C363.15363281 284.89294922 362.51039063 286.01636719 361.84765625 287.17382812 C361.14855234 288.38678495 360.44933056 289.59967384 359.75 290.8125 C359.02454649 292.07606103 358.29928874 293.33973448 357.57421875 294.60351562 C352.52219693 303.39931183 347.4170285 312.16379738 342.29199219 320.91723633 C337.80992366 328.58243398 333.39596222 336.28527105 329 344 C323.47053829 353.7029995 317.88983055 363.37412485 312.24731445 373.01196289 C309.08867326 378.40999679 305.94688015 383.81713532 302.828125 389.23828125 C302.48113052 389.84122009 302.13413605 390.44415894 301.77662659 391.06536865 C300.08510909 394.00536769 298.39568346 396.94653173 296.70874023 399.88916016 C295.8068396 401.45802979 295.8068396 401.45802979 294.88671875 403.05859375 C294.35264404 403.98986084 293.81856934 404.92112793 293.26831055 405.88061523 C292 408 292 408 291 409 C289.25515314 409.1159353 287.50562599 409.16187864 285.7570343 409.18081665 C284.62000565 409.19519775 283.48297699 409.20957886 282.31149292 409.22439575 C280.42347458 409.24021194 280.42347458 409.24021194 278.49731445 409.25634766 C277.18032059 409.27095032 275.86332672 409.28555298 274.50642395 409.30059814 C262.34882864 409.43100605 250.19030453 409.4967588 238.03214741 409.54844093 C229.04262823 409.58734746 220.05436247 409.6556793 211.06539375 409.76298869 C204.74773024 409.83586558 198.43040928 409.87427949 192.11234254 409.88746679 C188.33771227 409.89633147 184.56463002 409.92057094 180.79046059 409.98213577 C177.23664003 410.03944487 173.68516256 410.05404142 170.13094902 410.03626251 C168.20909089 410.03755761 166.28742449 410.08351587 164.3661499 410.13088989 C156.08954055 410.03154466 156.08954055 410.03154466 152.91915703 407.02991962 C151.37143111 404.7431548 150.15218734 402.50522822 149 400 C148.42443359 399.03118896 147.84886719 398.06237793 147.25585938 397.06420898 C146.55686523 395.79299194 146.55686523 395.79299194 145.84375 394.49609375 C145.03369507 393.03345093 145.03369507 393.03345093 144.20727539 391.54125977 C143.64387451 390.51701904 143.08047363 389.49277832 142.5 388.4375 C137.77593881 379.92563837 132.98489478 371.46129245 128.0625 363.0625 C127.48677246 362.07983154 126.91104492 361.09716309 126.31787109 360.0847168 C125.14144228 358.07682088 123.96500997 356.06892701 122.78857422 354.06103516 C114.06511595 339.13137097 105.48851107 324.11641086 96.9229126 309.0958252 C92.32624562 301.03773079 87.686862 293.00599909 83 285 C77.9681931 276.40477328 72.99610928 267.7768787 68.0625 259.125 C62.87557574 250.02920013 57.67318494 240.94287737 52.4375 231.875 C51.82197266 230.80894531 51.20644531 229.74289062 50.57226562 228.64453125 C48.71529806 225.42942477 46.85776421 222.21464622 45 219 C36.93910696 205.05155632 28.90290574 191.08996112 20.92263794 177.09527588 C16.32605777 169.03736788 11.6867584 161.00582214 7 153 C1.96819319 144.40477344 -3.00390755 135.77688836 -7.9375 127.125 C-13.29076283 117.73735419 -18.66111271 108.36005434 -24.0625 99 C-24.65732178 97.96891113 -25.25214355 96.93782227 -25.86499023 95.87548828 C-26.72265991 94.39024658 -26.72265991 94.39024658 -27.59765625 92.875 C-28.42547607 91.42867187 -28.42547607 91.42867187 -29.27001953 89.953125 C-30.48482246 87.87942246 -31.73962355 85.82888474 -33.02294922 83.796875 C-33.67408691 82.75015625 -34.32522461 81.7034375 -34.99609375 80.625 C-35.59478271 79.68914062 -36.19347168 78.75328125 -36.81030273 77.7890625 C-38.29788989 74.30164291 -38.02639725 72.61699782 -37 69 C-35.88354492 66.37304688 -35.88354492 66.37304688 -34.48046875 63.71875 C-33.69820923 62.22565308 -33.69820923 62.22565308 -32.90014648 60.70239258 C-32.33497314 59.64560303 -31.7697998 58.58881348 -31.1875 57.5 C-30.60363525 56.39358154 -30.01977051 55.28716309 -29.41821289 54.1472168 C-23.71526563 43.37481203 -17.8668614 32.68386338 -12 22 C-8.04 14.74 -4.08 7.48 0 0 Z " fill="#617FAB" transform="translate(434,83)"/>
<path d="M0 0 C2.4111924 0.08535051 4.8226742 0.16290391 7.234375 0.23242188 C13.12093353 0.41903887 18.99662116 0.70267859 24.875 1.0625 C25.28637207 1.81007568 25.69774414 2.55765137 26.12158203 3.32788086 C35.07361909 19.59021045 44.07316626 35.82411862 53.16162109 52.01074219 C56.04786421 57.15152859 58.93074732 62.2941953 61.8125 67.4375 C62.38685791 68.46246582 62.96121582 69.48743164 63.55297852 70.54345703 C67.86681624 78.24764054 72.15497106 85.96587903 76.4375 93.6875 C81.56353683 102.92897263 86.7340756 112.14355536 91.94799805 121.33569336 C94.91259059 126.56933417 97.85590163 131.81420143 100.7734375 137.07421875 C101.10478699 137.67158844 101.43613647 138.26895813 101.77752686 138.88442993 C103.38336765 141.7810192 104.98684173 144.67888236 106.58789062 147.578125 C110.15122155 154.01637166 113.80602984 160.38363846 117.59423828 166.69262695 C118.875 169.0625 118.875 169.0625 118.875 171.0625 C161.445 171.0625 204.015 171.0625 247.875 171.0625 C246.40695771 175.46662687 245.19784118 178.54132978 242.92578125 182.421875 C242.03632812 183.95134766 242.03632812 183.95134766 241.12890625 185.51171875 C240.48824219 186.60097656 239.84757812 187.69023437 239.1875 188.8125 C238.51243361 189.96970972 237.83796538 191.12726857 237.1640625 192.28515625 C235.76484195 194.68820582 234.36307065 197.0897392 232.95947266 199.49023438 C230.39821904 203.87451449 227.85959158 208.27169707 225.33281803 212.67593765 C224.09877379 214.81054244 222.85204361 216.93791087 221.58755398 219.05462265 C218.30487798 224.59312399 215.40746544 229.97102094 212.91285706 235.91021729 C205.38054361 252.85427484 205.38054361 252.85427484 197.84452438 256.54777527 C189.72666157 258.7339967 181.42952876 258.51522711 173.09896922 258.22998714 C169.48621367 258.13161197 165.87474961 258.17494368 162.26112366 258.19952393 C156.20548482 258.22051041 150.15762904 258.14399384 144.10375977 258.00048828 C137.11618052 257.83540013 130.13699973 257.79576133 123.14771742 257.82889342 C115.67672842 257.8640038 108.20777664 257.82246284 100.73711324 257.75077534 C98.59519347 257.73441586 96.45354409 257.73073869 94.31156731 257.72930145 C90.32019237 257.72094967 86.33352366 257.62500919 82.34350586 257.51855469 C80.57379173 257.52523918 80.57379173 257.52523918 78.76832581 257.53205872 C75.50539971 257.4034786 72.93657288 257.20400032 69.875 256.0625 C67.08472552 253.0335724 65.49584158 249.81855444 63.875 246.0625 C63.24932129 244.98629395 62.62364258 243.91008789 61.97900391 242.80126953 C61.44194824 241.85880371 60.90489258 240.91633789 60.3515625 239.9453125 C59.7313623 238.85839111 59.11116211 237.77146973 58.47216797 236.65161133 C57.82135254 235.50845459 57.17053711 234.36529785 56.5 233.1875 C55.79974808 231.959168 55.09938763 230.73089785 54.39892578 229.50268555 C53.31241156 227.59752106 52.22598359 225.69230796 51.13998413 223.78684998 C48.6871751 219.48375359 46.22832451 215.1841613 43.765625 210.88671875 C37.37185465 199.72574827 31.01191628 188.54825234 24.75 177.3125 C19.65413318 168.17033915 14.42688776 159.1139195 9.12890625 150.08764648 C4.30594303 141.8504407 -0.3717535 133.53718471 -5.02001953 125.20043945 C-10.10549372 116.08143741 -15.2737045 107.01205672 -20.46777344 97.95458984 C-22.31688895 94.72762721 -24.1627456 91.49880959 -26.0078125 88.26953125 C-26.34421249 87.68096848 -26.68061249 87.0924057 -27.02720642 86.48600769 C-28.74217057 83.48504313 -30.45536303 80.48308975 -32.1652832 77.47924805 C-35.35495612 71.88007019 -38.56591191 66.29601614 -41.84765625 60.75 C-42.41419922 59.78449219 -42.98074219 58.81898438 -43.56445312 57.82421875 C-44.61940464 56.02915083 -45.68401115 54.23971009 -46.75976562 52.45703125 C-47.22189453 51.66683594 -47.68402344 50.87664062 -48.16015625 50.0625 C-48.5662915 49.381875 -48.97242676 48.70125 -49.39086914 48 C-50.33205929 45.51603425 -50.06265047 44.53032369 -49.125 42.0625 C-48.30598152 40.35950581 -47.436759 38.68028198 -46.53515625 37.01953125 C-45.99697266 36.02630859 -45.45878906 35.03308594 -44.90429688 34.00976562 C-44.33775391 32.97529297 -43.77121094 31.94082031 -43.1875 30.875 C-42.65576172 29.89080078 -42.12402344 28.90660156 -41.57617188 27.89257812 C-40.43316432 25.79282099 -39.25600551 23.71140301 -38.05078125 21.64672852 C-36.55023798 19.0054266 -35.44281341 16.34840152 -34.37109375 13.50756836 C-27.59529449 -2.82201994 -15.90200309 -0.97680016 0 0 Z " fill="#A18552" transform="translate(614.125,81.9375)"/>
<path d="M0 0 C2.44031617 -0.03747412 4.88238325 -0.00354749 7.32128906 0.08747864 C8.67220198 0.09115114 10.02314079 0.08907637 11.3740387 0.08172607 C15.02244761 0.07801198 18.66524248 0.15412989 22.31235123 0.24518752 C26.13038479 0.32674959 29.9485637 0.33411313 33.76733398 0.34951782 C40.98961839 0.38984128 48.20932858 0.49639488 55.43048191 0.62706119 C63.65505525 0.77263646 71.87975508 0.84390959 80.10529709 0.90910184 C97.0173224 1.04479632 113.92684565 1.27328103 130.83691406 1.56330872 C129.73917545 3.77877145 128.6392526 5.99310518 127.53808594 8.2068634 C127.23118835 8.82681183 126.92429077 9.44676025 126.60809326 10.085495 C123.75833367 15.80709442 120.60326151 21.31958065 117.33691406 26.81330872 C116.1058242 28.90408895 114.87537773 30.99524813 113.64550781 33.08674622 C113.01757324 34.15247864 112.38963867 35.21821106 111.74267578 36.3162384 C108.59860352 41.67316398 105.4989379 47.05552308 102.39941406 52.43830872 C101.77744141 53.51757629 101.15546875 54.59684387 100.51464844 55.70881653 C99.25224466 57.89945837 97.99003784 60.09021372 96.72802734 62.28108215 C93.60011258 67.70990814 90.46832958 73.13650153 87.33691406 78.56330872 C86.08689527 80.72996454 84.83689528 82.89663121 83.58691406 85.06330872 C81.08691406 89.39664205 78.58691406 93.72997538 76.08691406 98.06330872 C75.4680835 99.13596985 74.84925293 100.20863098 74.21166992 101.313797 C72.96255888 103.47887942 71.71337277 105.64391854 70.46411133 107.80891418 C67.32489097 113.24946577 64.18700843 118.69078087 61.05175781 124.13362122 C55.02944078 134.58537071 48.99022069 145.0263042 42.89941406 155.43830872 C37.21336244 165.16027256 31.60723231 174.92635738 26.04418945 184.71907043 C24.80755264 186.89179436 23.53770522 189.0459029 22.23780823 191.18138123 C20.3023777 194.50989788 18.88874963 197.89188441 17.48727417 201.47554016 C10.61374982 217.54717907 10.61374982 217.54717907 2.64585114 220.91014099 C-6.22832769 222.82862915 -15.24176015 222.40193604 -24.25653219 221.99676323 C-28.19793787 221.84542531 -32.13990851 221.83253879 -36.08377075 221.80415344 C-43.53185436 221.72991032 -50.97135739 221.53354785 -58.415681 221.29176569 C-66.89830002 221.02231895 -75.3813576 220.89127043 -83.86719871 220.77107525 C-101.304104 220.52103224 -118.73268487 220.09968369 -136.16308594 219.56330872 C-134.58519925 215.48696897 -132.65487475 211.80061796 -130.40917969 208.05940247 C-129.85055992 207.11944176 -129.85055992 207.11944176 -129.28065491 206.16049194 C-128.05760842 204.10506832 -126.82922772 202.05289182 -125.60058594 200.00080872 C-124.7384186 198.55495737 -123.87644204 197.10899224 -123.01464844 195.66291809 C-117.26810982 186.03168893 -111.46258479 176.43706094 -105.62521362 166.86064148 C-99.90125601 157.46912279 -94.26497027 148.02809307 -88.66308594 138.56330872 C-82.04713509 127.38518642 -75.35510108 116.25774883 -68.5925293 105.1678009 C-63.06470043 96.09206518 -57.63634954 86.95921724 -52.22558594 77.81330872 C-47.27310088 69.44236307 -42.31386223 61.08595718 -37.09155273 52.87947083 C-31.56750657 44.1311903 -26.37239266 35.17673835 -21.11230469 26.26838684 C-20.71548492 25.59716293 -20.31866516 24.92593903 -19.90982056 24.234375 C-19.17580037 22.99243416 -18.44274412 21.74992266 -17.71102905 20.50662231 C-17.00506268 19.31210727 -16.28485866 18.12589905 -15.55108643 16.94826031 C-14.06362694 14.46868809 -14.06362694 14.46868809 -12.64362526 11.36524963 C-7.20491563 0.84434097 -7.20491563 0.84434097 0 0 Z " fill="#052F56" transform="translate(582.1630859375,510.4366912841797)"/>
<path d="M0 0 C3.77319332 0.15142043 7.54698653 0.16423014 11.32274866 0.19260979 C18.45227593 0.26683189 25.57283103 0.46315492 32.6984278 0.70499754 C40.81824066 0.97451915 48.93851406 1.10550968 57.06169534 1.22568798 C73.75240325 1.4756821 90.43411674 1.89697257 107.1181283 2.43345451 C105.63935212 6.22476325 103.94311647 9.67039283 101.9150033 13.20298576 C101.27176111 14.32640373 100.62851892 15.4498217 99.96578455 16.60728264 C99.26668064 17.82023946 98.56745886 19.03312836 97.8681283 20.24595451 C97.14267479 21.50951555 96.41741704 22.77318899 95.69234705 24.03697014 C90.64032523 32.83276634 85.5351568 41.59725189 80.41012049 50.35069084 C75.92805196 58.0158885 71.51409052 65.71872556 67.1181283 73.43345451 C61.58866659 83.13645401 56.00795884 92.80757936 50.36544275 102.4454174 C47.20680156 107.84345131 44.06500845 113.25058984 40.9462533 118.67173576 C40.59925882 119.27467461 40.25226435 119.87761345 39.89475489 120.49882317 C38.20323739 123.43882221 36.51381176 126.37998625 34.82686853 129.32261467 C34.22560144 130.36852776 33.62433435 131.41444084 33.00484705 132.49204826 C32.47077234 133.42331535 31.93669764 134.35458244 31.38643885 135.31406975 C30.1181283 137.43345451 30.1181283 137.43345451 29.1181283 138.43345451 C27.359194 138.52977497 25.59635671 138.55532961 23.83478785 138.55370903 C22.68908823 138.55508369 21.54338861 138.55645836 20.36297083 138.55787468 C18.46081308 138.55248177 18.46081308 138.55248177 16.52022791 138.5469799 C15.18019599 138.54669803 13.84016391 138.54685577 12.50013208 138.54742241 C8.85153392 138.54771038 5.20296835 138.54181371 1.55437779 138.53484845 C-2.25464686 138.52861486 -6.0636722 138.52801111 -9.87270117 138.52682304 C-17.09044924 138.52370974 -24.30818224 138.51549638 -31.52592367 138.50547355 C-39.74102427 138.49431237 -47.95612558 138.48880196 -56.17123187 138.48377812 C-73.07478721 138.47331376 -89.97832786 138.45571435 -106.8818717 138.43345451 C-105.94878979 136.54726183 -105.01334456 134.66223818 -104.07694006 132.77769279 C-103.29594191 131.20291664 -103.29594191 131.20291664 -102.49916601 129.59632683 C-100.00538987 124.71935703 -97.23696891 120.01867535 -94.4443717 115.30845451 C-93.20418934 113.19943165 -91.96462732 111.0900439 -90.7256217 108.98032951 C-90.09140295 107.90202873 -89.4571842 106.82372795 -88.8037467 105.71275139 C-85.65703037 100.34350676 -82.55033209 94.95134616 -79.4443717 89.55845451 C-78.82320471 88.48079826 -78.20203772 87.40314201 -77.56204748 86.29282951 C-75.66811254 83.00668369 -73.77488163 79.72013327 -71.8818717 76.43345451 C-51.64927786 41.30525192 -51.64927786 41.30525192 -48.30326033 35.82555199 C-45.21437998 30.69451644 -42.47832246 25.66465547 -40.23584509 20.10618401 C-31.59633545 0.1088682 -19.91095106 -0.93546947 0 0 Z " fill="#1F496E" transform="translate(695.8818717002869,353.5665454864502)"/>
<path d="M0 0 C44.02350757 3.87986259 89.52656208 35.77006916 122 64 C122.84175781 64.72832031 123.68351563 65.45664063 124.55078125 66.20703125 C135.63181651 75.98228167 145.85848109 86.38733326 155 98 C156.4579435 99.72949537 157.91628633 101.45865417 159.375 103.1875 C167.07011951 112.61201048 173.77629688 122.78114566 180.0625 133.1875 C180.43246094 133.79883789 180.80242187 134.41017578 181.18359375 135.04003906 C183.10465583 138.28092857 184.64382313 141.49166988 186 145 C172.70927001 145.30148358 159.41935561 145.53232975 146.12590027 145.67355824 C139.9526578 145.74135081 133.7817575 145.83325452 127.60986328 145.98071289 C121.65093078 146.12218878 115.69424712 146.19973631 109.73376465 146.23340416 C107.46248965 146.25738785 105.19133517 146.30422905 102.92102051 146.37449074 C85.59772984 146.88918612 85.59772984 146.88918612 81.29076004 143.75696373 C78.14955164 140.29911075 76.62334369 136.35580614 75 132 C73.91427365 130.01759813 72.80164389 128.04939104 71.6484375 126.10546875 C70.55514174 124.13400323 69.46405476 122.16131145 68.375 120.1875 C63.71324023 111.80073623 58.97952647 103.46419444 54.125 95.1875 C49.04867896 86.5312548 44.03211341 77.84285578 39.0625 69.125 C33.89945444 60.06910315 28.71605939 51.02551776 23.5 42 C18.37216416 33.12040753 13.25134186 24.23683417 8.15332031 15.34008789 C7.42930915 14.0772815 6.70454351 12.81490736 5.97900391 11.55297852 C4.97482963 9.80603185 3.97366507 8.05735616 2.97265625 6.30859375 C2.39781494 5.30626709 1.82297363 4.30394043 1.23071289 3.27124023 C0 1 0 1 0 0 Z " fill="#6181AD" transform="translate(661,86)"/>
<path d="M0 0 C42.9 0 85.8 0 130 0 C128.53195771 4.40412687 127.32284118 7.47882978 125.05078125 11.359375 C124.4578125 12.37902344 123.86484375 13.39867187 123.25390625 14.44921875 C122.61324219 15.53847656 121.97257813 16.62773437 121.3125 17.75 C120.63743361 18.90720972 119.96296538 20.06476857 119.2890625 21.22265625 C117.88984195 23.62570582 116.48807065 26.0272392 115.08447266 28.42773438 C112.52321072 32.81202873 109.98454137 37.2092054 107.45786953 41.61352348 C106.2238575 43.74796233 104.97698041 45.87506372 103.71209049 47.99135017 C100.42540357 53.53442682 97.53214456 58.91101363 95.04527283 64.8600769 C87.52635952 81.83940254 87.52635952 81.83940254 79.95146561 85.45517731 C71.75608184 87.55262172 63.40506888 87.21635786 55.02637982 86.83817148 C51.39551375 86.70230359 47.76503179 86.71645074 44.13206482 86.71359253 C37.27515533 86.68595006 30.42812278 86.52659973 23.57459444 86.31787765 C15.76378639 86.08656312 7.95355646 86.00509033 0.13989747 85.93517137 C-15.91181656 85.78823024 -31.95403788 85.45647263 -48 85 C-48.33 84.34 -48.66 83.68 -49 83 C-48.34 83 -47.68 83 -47 83 C-46.7225293 82.27143799 -46.44505859 81.54287598 -46.15917969 80.79223633 C-45.07184335 78.17305652 -43.85102985 75.78877258 -42.453125 73.32421875 C-41.94555664 72.42687012 -41.43798828 71.52952148 -40.91503906 70.60498047 C-40.36557617 69.64221191 -39.81611328 68.67944336 -39.25 67.6875 C-38.67217773 66.67059082 -38.09435547 65.65368164 -37.49902344 64.60595703 C-31.08842967 53.35199553 -24.55424291 42.17070965 -18 31 C-17.2472227 29.71680296 -16.49445623 28.43359957 -15.74169922 27.15039062 C-15.15807114 26.15554153 -15.15807114 26.15554153 -14.56265259 25.14059448 C-13.77140121 23.79176876 -12.98020206 22.44291239 -12.1890564 21.09402466 C-10.2674313 17.81773538 -8.34507373 14.54188212 -6.42089844 11.26708984 C-5.72199125 10.07650559 -5.02309735 8.88591354 -4.32421875 7.6953125 C-3.70635498 6.64359863 -3.08849121 5.59188477 -2.4519043 4.50830078 C-1.59493078 3.02779869 -0.76502158 1.53004315 0 0 Z " fill="#3E311C" transform="translate(732,253)"/>
<path d="M0 0 C1.640625 1.09765625 1.640625 1.09765625 3.890625 3.09765625 C3.890625 2.10765625 3.890625 1.11765625 3.890625 0.09765625 C8.180625 0.09765625 12.470625 0.09765625 16.890625 0.09765625 C16.95872104 7.61755455 17.01362436 15.13733599 17.04606152 22.6574688 C17.06163905 26.15034423 17.08272996 29.64299564 17.11694336 33.13574219 C17.15613194 37.16212978 17.17039947 41.1882864 17.18359375 45.21484375 C17.19907761 46.45378387 17.21456146 47.692724 17.23051453 48.96920776 C17.23364078 65.25586664 17.23364078 65.25586664 12.20426941 71.03561401 C5.84099101 76.92182046 -0.19337872 77.47459069 -8.6484375 77.359375 C-14.33040826 76.92970001 -18.35180433 75.26937003 -23.109375 72.09765625 C-22.59901669 67.70857475 -21.58723223 64.76057563 -19.109375 61.09765625 C-14.109375 63.09765625 -14.109375 63.09765625 -11.796875 64.28515625 C-8.05572655 65.41620113 -4.77564731 65.60543058 -1.109375 64.09765625 C1.2814447 60.13786112 1.890625 57.7243969 1.890625 53.09765625 C1.41625 53.57203125 0.941875 54.04640625 0.453125 54.53515625 C-3.83693465 57.15104628 -8.32318429 57.52746788 -13.26171875 56.765625 C-18.21853032 55.29094977 -20.84963714 52.61568247 -23.8828125 48.5234375 C-27.17123843 42.0198945 -27.46807401 35.36583881 -27.421875 28.22265625 C-27.41768555 27.34077637 -27.41349609 26.45889648 -27.40917969 25.55029297 C-27.25626667 16.75454116 -25.99484734 8.9920667 -20.109375 2.09765625 C-14.73199063 -1.93538202 -6.21663024 -2.65933627 0 0 Z M-10.484375 13.34765625 C-13.28440873 18.08617486 -13.31932294 22.48810831 -13.359375 27.91015625 C-13.38 28.59658203 -13.400625 29.28300781 -13.421875 29.99023438 C-13.46038767 35.07872142 -12.45636225 38.57009406 -10.109375 43.09765625 C-7.56181558 45.20598129 -6.36587298 45.11336021 -3.046875 44.91015625 C0.0784322 44.04570958 1.00141968 43.64875288 2.890625 41.09765625 C3.5401314 36.81562341 3.35374834 32.48584181 3.328125 28.16015625 C3.34810547 26.96712891 3.36808594 25.77410156 3.38867188 24.54492188 C3.38802734 23.39830078 3.38738281 22.25167969 3.38671875 21.0703125 C3.38857178 20.02109619 3.3904248 18.97187988 3.39233398 17.89086914 C2.76475317 14.39687785 1.68950939 13.22375892 -1.109375 11.09765625 C-5.4510593 10.39988556 -7.23769825 10.27185722 -10.484375 13.34765625 Z " fill="#112147" transform="translate(653.109375,1022.90234375)"/>
<path d="M0 0 C4.62 0 9.24 0 14 0 C17.00343944 9.33434804 20.00320471 18.66985473 22.99648285 28.00746632 C24.38646416 32.3430432 25.77806176 36.67808743 27.17333984 41.01196289 C28.51929872 45.19285066 29.86102911 49.37507346 31.19981384 53.55826378 C31.71183789 55.15557015 32.22539474 56.75238599 32.74049377 58.34870338 C33.46059307 60.58121373 34.17526804 62.81539149 34.88867188 65.05004883 C35.21127235 66.04374985 35.21127235 66.04374985 35.54039001 67.05752563 C36.42265937 69.83821331 37 72.0599386 37 75 C31.72 75 26.44 75 21 75 C19.68 69.39 18.36 63.78 17 58 C7.1 58.495 7.1 58.495 -3 59 C-4.27512613 63.89050364 -4.27512613 63.89050364 -5.54272461 68.78295898 C-6.88888889 73.88888889 -6.88888889 73.88888889 -8 75 C-10.53049402 75.07313567 -13.03304837 75.09247527 -15.5625 75.0625 C-16.27341797 75.05798828 -16.98433594 75.05347656 -17.71679688 75.04882812 C-19.47790013 75.03700864 -21.23896036 75.01907263 -23 75 C-21.3741918 66.88979288 -18.9456841 59.071034 -16.46484375 51.19140625 C-16.021418 49.77425083 -15.57827193 48.35700786 -15.13539124 46.93968201 C-14.21225595 43.98811895 -13.28667373 41.03733906 -12.35913086 38.0871582 C-11.16951046 34.30315615 -9.98470939 30.51766673 -8.80153561 26.73164463 C-7.88931471 23.81363909 -6.97529113 20.89620093 -6.06064034 17.97895622 C-5.62286595 16.58240016 -5.1854898 15.18571921 -4.74851799 13.78891182 C-4.13998543 11.845141 -3.5289175 9.90216447 -2.91772461 7.95922852 C-2.57067978 6.85386246 -2.22363495 5.7484964 -1.86607361 4.6096344 C-1 2 -1 2 0 0 Z M6 22 C4.99589032 25.62387457 3.99741092 29.24927651 3 32.875 C2.71382812 33.90753906 2.42765625 34.94007812 2.1328125 36.00390625 C1.86210938 36.99003906 1.59140625 37.97617188 1.3125 38.9921875 C1.06113281 39.90339355 0.80976562 40.81459961 0.55078125 41.75341797 C-0.07937086 43.93822705 -0.07937086 43.93822705 0 46 C4.62 46 9.24 46 14 46 C13.05142578 42.18482256 12.09169719 38.37308542 11.125 34.5625 C10.85558594 33.47388672 10.58617187 32.38527344 10.30859375 31.26367188 C10.04433594 30.22919922 9.78007813 29.19472656 9.5078125 28.12890625 C9.14647217 26.69140015 9.14647217 26.69140015 8.77783203 25.22485352 C8.22835425 22.82387529 8.22835425 22.82387529 6 22 Z " fill="#112147" transform="translate(585,1004)"/>
<path d="M0 0 C4.63215787 2.7568253 7.58180984 5.8576535 8.95507812 11.18945312 C9.54559122 14.94470739 9.62044969 18.6724223 9.6875 22.46484375 C9.71511414 23.66832458 9.71511414 23.66832458 9.74328613 24.89611816 C9.82155666 28.31326666 9.8895434 31.73060209 9.95849609 35.14794922 C10.01044307 37.6495059 10.06760398 40.15090711 10.125 42.65234375 C10.13857544 43.42018188 10.15215088 44.18802002 10.1661377 44.97912598 C10.25562421 48.85594044 10.63933204 52.22400394 11.40625 56.05859375 C6.45625 56.05859375 1.50625 56.05859375 -3.59375 56.05859375 C-3.59375 55.06859375 -3.59375 54.07859375 -3.59375 53.05859375 C-5.264375 54.07953125 -5.264375 54.07953125 -6.96875 55.12109375 C-11.99682174 57.6262146 -16.2222559 57.46220025 -21.59375 56.05859375 C-26.70444562 53.45678507 -29.31600142 50.54336259 -31.28125 45.18359375 C-32.19032279 39.00189875 -31.56519513 34.59162951 -28.59375 29.05859375 C-24.791696 24.13828857 -20.56049959 22.23698003 -14.59375 21.05859375 C-11.21256137 20.84197164 -7.98809254 20.91517083 -4.59375 21.05859375 C-5.25375 18.08859375 -5.91375 15.11859375 -6.59375 12.05859375 C-10.69598585 11.04319263 -10.69598585 11.04319263 -14.59375 12.05859375 C-15.25375 13.70859375 -15.91375 15.35859375 -16.59375 17.05859375 C-21.21375 17.05859375 -25.83375 17.05859375 -30.59375 17.05859375 C-30.15791015 11.61059561 -29.07896211 8.29736524 -25.59375 4.05859375 C-18.22884043 -1.5026645 -8.89799305 -3.22954266 0 0 Z M-15.59375 33.05859375 C-17.31188845 36.92440527 -17.97078579 38.95105112 -16.59375 42.99609375 C-14.71701851 45.32639767 -14.71701851 45.32639767 -11.65625 45.62109375 C-8.60314571 45.2279043 -8.60314571 45.2279043 -6.21875 43.74609375 C-3.61969424 39.44765537 -4.28969451 34.9572656 -4.59375 30.05859375 C-9.2066695 29.73676216 -12.02763359 29.98777129 -15.59375 33.05859375 Z " fill="#112147" transform="translate(374.59375,1022.94140625)"/>
<path d="M0 0 C4.95 0 9.9 0 15 0 C17.31 9.57 19.62 19.14 22 29 C24.31 19.43 26.62 9.86 29 0 C33.95 0 38.9 0 44 0 C42.57146081 7.72200312 40.63471137 15.18772631 38.4453125 22.7265625 C37.93108231 24.50805191 37.93108231 24.50805191 37.40646362 26.32553101 C36.68412127 28.82214331 35.95956674 31.31811653 35.23291016 33.81347656 C34.12703875 37.61798612 33.03392866 41.42601373 31.94140625 45.234375 C31.23515125 47.6694961 30.52814534 50.10439957 29.8203125 52.5390625 C29.49725128 53.66945953 29.17419006 54.79985657 28.84133911 55.96450806 C23.9800296 72.52562205 23.9800296 72.52562205 17 77 C12.52745503 78.49084832 8.47254497 78.49084832 4 77 C4 73.37 4 69.74 4 66 C5.093125 65.773125 6.18625 65.54625 7.3125 65.3125 C11.02629734 64.32503116 11.02629734 64.32503116 12.9375 61.8125 C15.6725978 54.57253525 13.05347204 47.7943591 10.9375 40.703125 C10.62675537 39.63253845 10.31601074 38.5619519 9.99584961 37.45892334 C9.00600833 34.05331513 8.00376139 30.6515289 7 27.25 C5.99811131 23.83368443 4.99890711 20.41662915 4.00415039 16.99822998 C3.38552285 14.87453472 2.76244757 12.75212906 2.13452148 10.63116455 C1.85423096 9.67296814 1.57394043 8.71477173 1.28515625 7.72753906 C1.03644775 6.88483459 0.78773926 6.04213013 0.53149414 5.17388916 C0 3 0 3 0 0 Z " fill="#112147" transform="translate(824,1023)"/>
<path d="M0 0 C5.20071905 3.15993056 7.73755042 7.56596629 9.24609375 13.37109375 C10.39612993 19.59715168 10.5 25.05101886 10.5 31.5 C0.93 31.5 -8.64 31.5 -18.5 31.5 C-17.11661673 38.93943934 -17.11661673 38.93943934 -14.5 42.5 C-10.11318963 43.88623208 -6.39046068 43.84629027 -2.125 42.1875 C-0.23909442 40.97513213 1.63455963 39.74362692 3.5 38.5 C5.48 41.14 7.46 43.78 9.5 46.5 C7.01499178 51.47001644 4.3162115 53.01240338 -0.5 55.5 C-7.88076247 57.8987478 -15.60695754 56.79182997 -22.5 53.5 C-27.78394363 50.12727002 -30.61475637 46.57467392 -32.5 40.5 C-34.50514092 29.38058218 -34.87306058 16.50493738 -28.875 6.5625 C-22.10520565 -2.49636151 -10.37556283 -4.40175393 0 0 Z M-16.375 11.5 C-18.17243534 14.6954406 -18.20202714 17.86473107 -18.5 21.5 C-13.55 21.5 -8.6 21.5 -3.5 21.5 C-3.78875 20.05625 -4.0775 18.6125 -4.375 17.125 C-4.53742187 16.31289062 -4.69984375 15.50078125 -4.8671875 14.6640625 C-5.36658932 12.31326077 -5.36658932 12.31326077 -7.5 10.5 C-12.09770626 10.05336148 -12.09770626 10.05336148 -16.375 11.5 Z " fill="#112147" transform="translate(711.5,1023.5)"/>
<path d="M0 0 C3.9904782 3.61637087 5.8276368 7.67440069 6.12025452 13.00189209 C6.11803391 13.79242981 6.11581329 14.58296753 6.11352539 15.39746094 C6.11344986 16.29809265 6.11337433 17.19872437 6.11329651 18.12664795 C6.10813522 19.09032288 6.10297394 20.0539978 6.09765625 21.046875 C6.0962413 22.04003723 6.09482635 23.03319946 6.09336853 24.05645752 C6.08777588 27.22516912 6.0752247 30.39380979 6.0625 33.5625 C6.05748405 35.71223856 6.05292131 37.86197823 6.04882812 40.01171875 C6.03780885 45.27867312 6.02054923 50.54557454 6 55.8125 C1.38 55.8125 -3.24 55.8125 -8 55.8125 C-8.01981934 54.55066895 -8.03963867 53.28883789 -8.06005859 51.98876953 C-8.13598765 47.31831508 -8.22472412 42.6481774 -8.31738281 37.97802734 C-8.35572521 35.95465334 -8.39056871 33.93120994 -8.421875 31.90771484 C-8.46741169 29.00332797 -8.52542409 26.09942106 -8.5859375 23.1953125 C-8.59748871 22.28693634 -8.60903992 21.37856018 -8.62094116 20.44265747 C-8.64081085 19.60193695 -8.66068054 18.76121643 -8.68115234 17.89501953 C-8.69447601 17.15333527 -8.70779968 16.411651 -8.7215271 15.64749146 C-8.85199729 13.5651636 -8.85199729 13.5651636 -11 11.8125 C-15.10449354 11.31791945 -15.10449354 11.31791945 -18.66438293 13.07551575 C-20.28995383 15.18958806 -20.39169326 16.27256213 -20.43237305 18.91674805 C-20.45216721 19.73737228 -20.47196136 20.55799652 -20.49235535 21.40348816 C-20.50194023 22.7254998 -20.50194023 22.7254998 -20.51171875 24.07421875 C-20.52966995 24.98001175 -20.54762115 25.88580475 -20.56611633 26.81904602 C-20.62030659 29.71264996 -20.65414286 32.60608815 -20.6875 35.5 C-20.72066539 37.46161165 -20.75515432 39.42320141 -20.79101562 41.38476562 C-20.87603806 46.19389097 -20.9428076 51.00296641 -21 55.8125 C-25.62 55.8125 -30.24 55.8125 -35 55.8125 C-35 37.3325 -35 18.8525 -35 -0.1875 C-30.38 -0.1875 -25.76 -0.1875 -21 -0.1875 C-21 0.8025 -21 1.7925 -21 2.8125 C-20.071875 2.1525 -19.14375 1.4925 -18.1875 0.8125 C-12.55514206 -2.41090648 -5.9580959 -2.35841296 0 0 Z " fill="#112147" transform="translate(198,1023.1875)"/>
<path d="M0 0 C4.62 0 9.24 0 14 0 C14.01981934 1.05388916 14.03963867 2.10777832 14.06005859 3.19360352 C14.13650687 7.12807889 14.22516177 11.06220323 14.31738281 14.99633789 C14.35551129 16.69450924 14.39039146 18.39275692 14.421875 20.09106445 C14.46787822 22.54145467 14.52581151 24.99132667 14.5859375 27.44140625 C14.59748871 28.19273331 14.60903992 28.94406036 14.62094116 29.71815491 C14.75208598 34.47177229 15.51445122 38.47819801 17 43 C20.32534757 44.10844919 22.62182575 43.84454356 26 43 C26.88565586 40.34303242 27.1450262 38.71809917 27.20532227 35.98754883 C27.22526749 35.18694534 27.24521271 34.38634186 27.26576233 33.56147766 C27.28247482 32.70201035 27.29918732 31.84254303 27.31640625 30.95703125 C27.33718735 30.0734343 27.35796844 29.18983734 27.37937927 28.27946472 C27.44475754 25.45722215 27.50370528 22.63488665 27.5625 19.8125 C27.60569637 17.89907894 27.64931102 15.98566727 27.69335938 14.07226562 C27.80042695 9.38160563 27.90172752 4.69085217 28 0 C32.62 0 37.24 0 42 0 C42 18.48 42 36.96 42 56 C37.38 56 32.76 56 28 56 C27.67 55.01 27.34 54.02 27 53 C26.43925781 53.47695312 25.87851562 53.95390625 25.30078125 54.4453125 C21.48344251 57.02477059 17.5241082 57.10456336 13 57 C8.92570249 56.20670578 6.45293566 54.51414319 3.6875 51.375 C0.20021694 44.40043387 -0.29376005 37.28272766 -0.1953125 29.58984375 C-0.1924826 28.73693253 -0.18965271 27.8840213 -0.18673706 27.00526428 C-0.17565831 24.31585882 -0.15057793 21.62680258 -0.125 18.9375 C-0.11495425 17.09961423 -0.10583121 15.26172317 -0.09765625 13.42382812 C-0.07575951 8.94908687 -0.04131673 4.47460237 0 0 Z " fill="#112147" transform="translate(261,1023)"/>
<path d="M0 0 C3.9322081 2.03607217 6.30601893 4.40237303 8.0715332 8.46679688 C9.30974275 13.17870025 9.24782434 17.57989876 9.1953125 22.4296875 C9.1924826 23.42001984 9.18965271 24.41035217 9.18673706 25.43069458 C9.1755847 28.57892176 9.15048907 31.72685949 9.125 34.875 C9.11496382 37.01562088 9.10583908 39.15624624 9.09765625 41.296875 C9.07566153 46.53136072 9.04116563 51.76563136 9 57 C4.38 57 -0.24 57 -5 57 C-5.01981934 55.77369873 -5.03963867 54.54739746 -5.06005859 53.28393555 C-5.13607619 48.73831492 -5.22479947 44.19301601 -5.31738281 39.64770508 C-5.35568847 37.67967069 -5.39053855 35.7115659 -5.421875 33.7434082 C-5.46749111 30.91592228 -5.52549098 28.08892166 -5.5859375 25.26171875 C-5.59748871 24.38037766 -5.60903992 23.49903656 -5.62094116 22.59098816 C-5.64081085 21.77036392 -5.66068054 20.94973969 -5.68115234 20.10424805 C-5.69447601 19.38254929 -5.70779968 18.66085052 -5.7215271 17.9172821 C-5.90726155 15.67398371 -5.90726155 15.67398371 -8 13 C-12.10585553 12.46102076 -12.10585553 12.46102076 -15.66438293 14.266922 C-17.29158287 16.37835385 -17.3917099 17.46114342 -17.43237305 20.10424805 C-17.45216721 20.92487228 -17.47196136 21.74549652 -17.49235535 22.59098816 C-17.50194023 23.9129998 -17.50194023 23.9129998 -17.51171875 25.26171875 C-17.52966995 26.16751175 -17.54762115 27.07330475 -17.56611633 28.00654602 C-17.62030659 30.90014996 -17.65414286 33.79358815 -17.6875 36.6875 C-17.72066539 38.64911165 -17.75515432 40.61070141 -17.79101562 42.57226562 C-17.87603806 47.38139097 -17.9428076 52.19046641 -18 57 C-22.62 57 -27.24 57 -32 57 C-32 38.52 -32 20.04 -32 1 C-27.71 1 -23.42 1 -19 1 C-18.34 1.66 -17.68 2.32 -17 3 C-16.236875 2.505 -15.47375 2.01 -14.6875 1.5 C-9.68034813 -0.53680754 -5.33279221 -0.95062818 0 0 Z " fill="#112147" transform="translate(761,1022)"/>
<path d="M0 0 C5.50811044 3.29327024 7.813762 8.35597121 9.4375 14.375 C9.66414427 17.34090177 9.62747453 20.27784661 9.5625 23.25 C9.52125 25.93125 9.48 28.6125 9.4375 31.375 C0.1975 31.705 -9.0425 32.035 -18.5625 32.375 C-17.41642004 39.87479579 -17.41642004 39.87479579 -14.5 42.4375 C-9.76715271 43.94798318 -5.12434178 43.67160564 -0.6484375 41.40625 C1.17431747 40.23074549 1.17431747 40.23074549 3.4375 38.375 C5.4175 41.015 7.3975 43.655 9.4375 46.375 C6.75028635 51.7494273 3.63447335 53.56130617 -1.9375 55.625 C-9.5155566 57.19287378 -16.5332934 56.77512111 -23.5625 53.375 C-29.53115997 48.71408014 -32.46868294 42.77318086 -33.5625 35.375 C-34.33000149 23.78820329 -34.25611584 12.66619727 -26.5625 3.375 C-19.08561622 -2.45696935 -8.85490853 -4.02647728 0 0 Z M-17 12.5 C-19.04001332 15.7082645 -19.04001332 15.7082645 -18.5625 21.375 C-13.6125 21.375 -8.6625 21.375 -3.5625 21.375 C-3.85125 19.93125 -4.14 18.4875 -4.4375 17 C-4.59992187 16.18789062 -4.76234375 15.37578125 -4.9296875 14.5390625 C-5.42908932 12.18826077 -5.42908932 12.18826077 -7.5625 10.375 C-11.78186698 9.82804502 -13.7301024 9.64932004 -17 12.5 Z " fill="#112147" transform="translate(524.5625,1023.625)"/>
<path d="M0 0 C5.01020773 2.32616787 7.01947624 4.89233347 9 10 C10.31952304 14.84656787 10.1264532 19.69396517 10.09765625 24.67578125 C10.0962413 25.6009404 10.09482635 26.52609955 10.09336853 27.47929382 C10.08778715 30.42372927 10.07523805 33.36808767 10.0625 36.3125 C10.05748259 38.31314994 10.05292011 40.31380108 10.04882812 42.31445312 C10.03782381 47.20966494 10.02057198 52.10481942 10 57 C5.38 57 0.76 57 -4 57 C-4.02505615 55.8447583 -4.0501123 54.6895166 -4.07592773 53.49926758 C-4.17026945 49.20342371 -4.27042437 44.90773146 -4.37231445 40.61206055 C-4.41556221 38.75467481 -4.45724428 36.89725192 -4.49731445 35.03979492 C-4.5552637 32.36625992 -4.61888652 29.69291019 -4.68359375 27.01953125 C-4.70030624 26.19226028 -4.71701874 25.36498932 -4.73423767 24.51264954 C-4.8352296 20.56096105 -5.04295881 16.85881731 -6 13 C-11.32170494 12.70437633 -11.32170494 12.70437633 -16 15 C-16.47359029 16.88814506 -16.47359029 16.88814506 -16.43237305 19.08251953 C-16.45216721 19.92324005 -16.47196136 20.76396057 -16.49235535 21.63015747 C-16.50194023 22.99272171 -16.50194023 22.99272171 -16.51171875 24.3828125 C-16.52966995 25.31221649 -16.54762115 26.24162048 -16.56611633 27.19918823 C-16.62039848 30.17441233 -16.6541722 33.14947443 -16.6875 36.125 C-16.72065729 38.13934556 -16.75514544 40.15366968 -16.79101562 42.16796875 C-16.87613515 47.11186256 -16.94286061 52.05570682 -17 57 C-21.62 57 -26.24 57 -31 57 C-31 38.52 -31 20.04 -31 1 C-26.71 1 -22.42 1 -18 1 C-17.67 1.99 -17.34 2.98 -17 4 C-16.236875 3.34 -15.47375 2.68 -14.6875 2 C-10.15888745 -1.01190383 -5.22859356 -0.76250323 0 0 Z " fill="#112147" transform="translate(425,1022)"/>
<path d="M0 0 C3.5533022 2.17611227 5.55298637 4.58521165 7.375 8.375 C7.94558634 11.07675072 8.18408192 13.60668779 8.375 16.375 C3.755 16.375 -0.865 16.375 -5.625 16.375 C-6.615 14.395 -7.605 12.415 -8.625 10.375 C-10.605 10.375 -12.585 10.375 -14.625 10.375 C-15.285 11.695 -15.945 13.015 -16.625 14.375 C-12.20950365 19.36943618 -7.48750818 21.58267656 -1.41992188 24.16015625 C3.9465903 26.62925575 6.01866808 28.91886247 8.375 34.375 C9.34303992 39.15825608 8.9937337 43.84976232 6.8125 48.25 C3.45203034 52.55829444 0.22002147 54.49960878 -5.0625 56.125 C-13.76915218 56.97442948 -19.6006901 56.03256314 -26.9375 51.1875 C-30.7879108 47.15800032 -32.625 42.96857953 -32.625 37.375 C-28.005 37.375 -23.385 37.375 -18.625 37.375 C-17.635 39.355 -16.645 41.335 -15.625 43.375 C-11.62245544 43.46681134 -11.62245544 43.46681134 -7.625 43.375 C-6.32866379 42.30854885 -6.32866379 42.30854885 -6.5625 39.8125 C-6.583125 39.008125 -6.60375 38.20375 -6.625 37.375 C-7.17961914 37.09825439 -7.73423828 36.82150879 -8.30566406 36.53637695 C-10.83509793 35.26557711 -13.35494343 33.97678874 -15.875 32.6875 C-16.74769531 32.25244141 -17.62039062 31.81738281 -18.51953125 31.36914062 C-24.00166052 28.54437936 -27.78773605 26.04952789 -30.625 20.375 C-31.18213132 14.41798055 -31.14680186 9.42291601 -27.625 4.375 C-20.50490679 -2.78400083 -9.28990436 -4.23226267 0 0 Z " fill="#112147" transform="translate(244.625,1023.625)"/>
<path d="M0 0 C5.89906421 4.46026806 8.68653724 7.90446185 9.9375 15.375 C10.14375 17.210625 10.35 19.04625 10.5625 20.9375 C5.9425 20.9375 1.3225 20.9375 -3.4375 20.9375 C-4.4275 17.9675 -5.4175 14.9975 -6.4375 11.9375 C-9.81150578 11.52024322 -9.81150578 11.52024322 -13.4375 11.9375 C-17.64465588 16.43281725 -16.84386712 22.23655891 -16.75 28 C-16.75322266 28.99322266 -16.75644531 29.98644531 -16.75976562 31.00976562 C-16.8523584 37.28674589 -16.8523584 37.28674589 -14.4375 42.9375 C-11.0945888 44.02757974 -9.32383218 44.36868863 -6.125 42.8125 C-3.95144157 40.71808281 -3.95144157 40.71808281 -3.4375 35.9375 C1.1825 35.9375 5.8025 35.9375 10.5625 35.9375 C8.42157046 49.1398988 8.42157046 49.1398988 2.88671875 53.15234375 C-3.2007786 56.81527042 -8.66485161 57.97716783 -15.71484375 56.44140625 C-21.55591722 54.72115666 -25.33509319 52.52937122 -28.50854492 47.10766602 C-31.66037219 40.69763637 -32.04431206 35.07184843 -31.9375 28 C-31.95296875 26.97970703 -31.9684375 25.95941406 -31.984375 24.90820312 C-31.94690436 17.56864071 -30.96680592 10.06733109 -26.02563477 4.28540039 C-18.76870025 -2.12611113 -9.02247452 -2.78876485 0 0 Z " fill="#112147" transform="translate(810.4375,1023.0625)"/>
<path d="M0 0 C4.78639366 3.84992534 7.43020102 7.29250425 8.875 13.3125 C8.95022969 15.64462027 8.96825876 17.9810311 8.875 20.3125 C4.585 20.3125 0.295 20.3125 -4.125 20.3125 C-4.87369792 18.26171875 -5.62239583 16.2109375 -6.37109375 14.16015625 C-6.97886948 12.32944322 -6.97886948 12.32944322 -8.125 11.3125 C-10.45797433 11.27157063 -12.79205225 11.27008277 -15.125 11.3125 C-17.94107191 16.88520168 -18.5660514 21.23618068 -18.4375 27.4375 C-18.44072266 28.22253906 -18.44394531 29.00757813 -18.44726562 29.81640625 C-18.40819212 34.02924071 -18.2444217 37.55566556 -16.125 41.3125 C-13.30967943 43.57739372 -13.30967943 43.57739372 -10.125 43.375 C-7.1074212 42.64990729 -7.1074212 42.64990729 -6.0703125 40.6796875 C-5.32584158 38.92840829 -4.71689154 37.1210575 -4.125 35.3125 C0.165 35.3125 4.455 35.3125 8.875 35.3125 C8.41552698 42.89380489 7.18594905 47.17581142 1.5 52.5625 C-4.46669375 56.54029584 -10.49141275 57.17785585 -17.42578125 55.8828125 C-23.41562747 54.25196361 -26.75236596 51.4861665 -30.125 46.3125 C-34.86924346 37.04992944 -34.66308667 22.58028772 -31.875 12.625 C-29.91157998 7.29571709 -27.70478627 2.98009797 -22.75 -0.0625 C-16.06732964 -3.04650665 -6.56674657 -3.4748443 0 0 Z " fill="#112147" transform="translate(476.125,1023.6875)"/>
<path d="M0 0 C4.95 0 9.9 0 15 0 C15 24.75 15 49.5 15 75 C10.05 75 5.1 75 0 75 C0 50.25 0 25.5 0 0 Z " fill="#112147" transform="translate(137,1004)"/>
<path d="M0 0 C0 4.62 0 9.24 0 14 C-2.24609375 14.16276042 -4.4921875 14.32552083 -6.73828125 14.48828125 C-9.45883358 15.10381209 -10.26286363 15.85242879 -12 18 C-12.33143468 21.00536961 -12.48875756 23.81445728 -12.51171875 26.82421875 C-12.52966995 27.68561966 -12.54762115 28.54702057 -12.56611633 29.43452454 C-12.62029298 32.18546658 -12.65413823 34.93623441 -12.6875 37.6875 C-12.72066663 39.55275866 -12.75515567 41.4179943 -12.79101562 43.28320312 C-12.87602356 47.85534318 -12.94279943 52.42743091 -13 57 C-17.62 57 -22.24 57 -27 57 C-27 38.52 -27 20.04 -27 1 C-22.71 1 -18.42 1 -14 1 C-13.67 1.66 -13.34 2.32 -13 3 C-12.525625 2.505 -12.05125 2.01 -11.5625 1.5 C-7.69005186 -0.76679891 -4.44506277 -0.19610571 0 0 Z " fill="#112147" transform="translate(340,1022)"/>
</svg>
